<svg width="21" height="21" viewBox="0 0 21 21" fill="none" xmlns="http://www.w3.org/2000/svg">
<path fill-rule="evenodd" clip-rule="evenodd" d="M11.2852 5.42115C11.2362 4.99634 10.8777 4.6666 10.4428 4.6666C9.97442 4.6666 9.59471 5.04902 9.59471 5.52076V9.79159H5.3542L5.2553 9.79734C4.8335 9.84668 4.5061 10.2077 4.5061 10.6458C4.5061 11.1175 4.88581 11.4999 5.3542 11.4999H9.59471V15.7708L9.60042 15.8704C9.64941 16.2952 10.0079 16.6249 10.4428 16.6249C10.9112 16.6249 11.2909 16.2425 11.2909 15.7708V11.4999H15.5314L15.6303 11.4942C16.0521 11.4448 16.3795 11.0838 16.3795 10.6458C16.3795 10.174 15.9998 9.79159 15.5314 9.79159H11.2909V5.52076L11.2852 5.42115Z" fill="white"/>
</svg>
