<svg width="72" height="88" viewBox="0 0 72 88" fill="none" xmlns="http://www.w3.org/2000/svg">
<path id="Vector" d="M56 8H68C69.0609 8 70.0783 8.42143 70.8284 9.17157C71.5786 9.92172 72 10.9391 72 12V84C72 85.0609 71.5786 86.0783 70.8284 86.8284C70.0783 87.5786 69.0609 88 68 88H4C2.93913 88 1.92172 87.5786 1.17157 86.8284C0.421427 86.0783 0 85.0609 0 84V12C0 10.9391 0.421427 9.92172 1.17157 9.17157C1.92172 8.42143 2.93913 8 4 8H16V0H24V8H48V0H56V8ZM16 32V40H56V32H16ZM16 48V56H56V48H16Z" fill="#D9CB99"/>
</svg>
