<svg width="22" height="22" viewBox="0 0 22 22" fill="none" xmlns="http://www.w3.org/2000/svg">
<g id="Vector">
<path d="M6.50598 0.802219C6.50598 1.23854 6.12992 1.63849 5.64103 1.63849H2.29402C1.95555 1.63849 1.69231 1.89301 1.69231 2.22025V19.7457C1.69231 20.0729 1.95555 20.3274 2.29402 20.3274H5.64103C6.12992 20.3274 6.50598 20.7274 6.50598 21.1637C6.50598 21.6 6.12992 22 5.64103 22H2.29402C1.01538 22 0 21.0183 0 19.782V2.22025C0 0.984019 1.01538 0.00230234 2.29402 0.00230232L5.64103 0.00230228C6.12992 -0.0340576 6.50598 0.365901 6.50598 0.802219Z" fill="white"/>
<path d="M15.2684 15.6734L19.1795 11.7829L6.16752 11.7829C5.71624 11.7829 5.30256 11.4193 5.30256 10.9466C5.30256 10.5103 5.67863 10.1103 6.16752 10.1103L19.1795 10.1103L15.2684 6.21983C15.1179 6.0744 15.0427 5.85624 15.0427 5.63808C15.0427 5.41992 15.1179 5.20176 15.306 5.05632C15.6444 4.72908 16.1709 4.76544 16.5094 5.05632L21.7744 10.4012C22.0752 10.7285 22.0752 11.2375 21.7744 11.5284L16.4718 16.8369C16.1333 17.1641 15.6068 17.1641 15.2684 16.8369C14.9675 16.5097 14.9299 16.0006 15.2684 15.6734Z" fill="white"/>
</g>
</svg>
