<svg width="51" height="50" viewBox="0 0 51 50" fill="none" xmlns="http://www.w3.org/2000/svg">
<rect x="0.5" width="50" height="50" rx="10" fill="black"/>
<path d="M27.4001 23.8998H23.8501C22.8001 23.8998 21.9501 23.0998 21.9501 22.0998C21.9501 21.0998 22.8001 20.2998 23.8501 20.2998H29.0001C29.6001 20.2998 30.1001 19.7998 30.1001 19.1998C30.1001 18.5998 29.6001 18.0998 29.0001 18.0998H26.6001V16.8998C26.6001 16.2998 26.1001 15.7998 25.5001 15.7998C24.9001 15.7998 24.4001 16.2998 24.4001 16.8998V18.0998H23.8501C21.5501 18.0998 19.7001 19.8998 19.7001 22.1498C19.7001 24.3998 21.5501 26.1998 23.8501 26.1998H27.4001C28.4501 26.1998 29.3001 26.9998 29.3001 27.9998C29.3001 28.9998 28.4501 29.7998 27.4001 29.7998H22.0001C21.4001 29.7998 20.9001 30.2998 20.9001 30.8998C20.9001 31.4998 21.4001 31.9998 22.0001 31.9998H24.4001V33.1998C24.4001 33.7998 24.9001 34.2998 25.5001 34.2998C26.1001 34.2998 26.6001 33.7998 26.6001 33.1998V31.9998H27.4001C29.7001 31.9998 31.5501 30.1998 31.5501 27.9498C31.6001 25.6998 29.7001 23.8998 27.4001 23.8998Z" fill="white"/>
<path d="M25.5 9.8999C17.15 9.8999 10.4 16.6499 10.4 24.9999C10.4 33.3499 17.15 40.0999 25.5 40.0999C33.85 40.0999 40.6 33.3499 40.6 24.9999C40.6 16.6499 33.85 9.8999 25.5 9.8999ZM25.5 37.8999C18.4 37.8999 12.6 32.0999 12.6 24.9999C12.6 17.8999 18.4 12.0999 25.5 12.0999C32.6 12.0999 38.4 17.8999 38.4 24.9999C38.4 32.0999 32.6 37.8999 25.5 37.8999Z" fill="white"/>
</svg>
