<svg width="103" height="87" viewBox="0 0 103 87" fill="none" xmlns="http://www.w3.org/2000/svg">
<path id="Vector" d="M101.935 0.348717C101.479 -0.0182977 100.83 -0.103448 100.28 0.130644L0.886211 42.5009C0.351109 42.7291 0.00652373 43.219 9.14726e-05 43.7602C-0.00634078 44.3015 0.326911 44.798 0.856807 45.0366L28.9851 57.7017C29.5009 57.9341 30.1159 57.8816 30.5766 57.5657L57.925 38.812L36.4554 59.0737C36.1491 59.3629 35.9928 59.7588 36.0265 60.1607L38.1642 85.7025C38.2117 86.2685 38.6252 86.7524 39.213 86.9297C39.3701 86.977 39.5315 87 39.6911 87C40.1288 87 40.5545 86.8277 40.8507 86.513L55.7803 70.6403L74.2363 78.7309C74.6369 78.9066 75.1007 78.9139 75.5077 78.7514C75.9148 78.5887 76.2248 78.2723 76.3577 77.8839L102.386 1.82605C102.568 1.29492 102.391 0.715733 101.935 0.348717Z" fill="#D9CB99"/>
</svg>
