<svg width="20" height="16" viewBox="0 0 20 16" fill="none" xmlns="http://www.w3.org/2000/svg">
<path fill-rule="evenodd" clip-rule="evenodd" d="M8.27835 1H11.7217C13.2602 0.999988 14.4789 0.999977 15.4327 1.12251C16.4142 1.24861 17.2087 1.5143 17.8352 2.11299C18.4618 2.71169 18.7398 3.47084 18.8718 4.40878C19 5.32015 19 6.48466 19 7.95487V8.04513C19 9.51534 19 10.6798 18.8718 11.5912C18.7398 12.5292 18.4618 13.2883 17.8352 13.887C17.2087 14.4857 16.4142 14.7514 15.4327 14.8775C14.4789 15 13.2602 15 11.7216 15H8.27835C6.73976 15 5.52109 15 4.56733 14.8775C3.58577 14.7514 2.7913 14.4857 2.16476 13.887C1.53823 13.2883 1.26017 12.5292 1.12821 11.5912C0.999976 10.6798 0.999987 9.51534 1 8.04513V7.95487C0.999987 6.48466 0.999976 5.32015 1.12821 4.40878C1.26017 3.47084 1.53823 2.71169 2.16476 2.11299C2.7913 1.5143 3.58577 1.24861 4.56733 1.12251C5.52109 0.999977 6.73976 0.999988 8.27835 1ZM4.73466 2.31181C3.89236 2.42002 3.40707 2.62295 3.05276 2.96152C2.69844 3.30009 2.48607 3.76381 2.37282 4.56868C2.25715 5.39081 2.25581 6.47454 2.25581 8C2.25581 9.52546 2.25715 10.6092 2.37282 11.4313C2.48607 12.2362 2.69844 12.6999 3.05276 13.0385C3.40707 13.377 3.89236 13.58 4.73466 13.6882C5.59503 13.7987 6.72917 13.8 8.32558 13.8H11.6744C13.2708 13.8 14.405 13.7987 15.2653 13.6882C16.1076 13.58 16.5929 13.377 16.9472 13.0385C17.3016 12.6999 17.5139 12.2362 17.6272 11.4313C17.7429 10.6092 17.7442 9.52546 17.7442 8C17.7442 6.47454 17.7429 5.39081 17.6272 4.56868C17.5139 3.76381 17.3016 3.30009 16.9472 2.96152C16.5929 2.62295 16.1076 2.42002 15.2653 2.31181C14.405 2.20127 13.2708 2.2 11.6744 2.2H8.32558C6.72917 2.2 5.59503 2.20127 4.73466 2.31181ZM4.49437 4.41589C4.71638 4.16132 5.11231 4.12693 5.37872 4.33907L7.18617 5.77833C7.96725 6.4003 8.50954 6.83073 8.96737 7.1121C9.41056 7.38447 9.7111 7.4759 10 7.4759C10.2889 7.4759 10.5894 7.38447 11.0326 7.1121C11.4905 6.83073 12.0327 6.4003 12.8138 5.77833L14.6213 4.33907C14.8877 4.12693 15.2836 4.16132 15.5056 4.41589C15.7276 4.67046 15.6916 5.04879 15.4252 5.26093L13.5863 6.72526C12.8442 7.31618 12.2428 7.79514 11.7119 8.12138C11.159 8.46122 10.6204 8.6759 10 8.6759C9.37956 8.6759 8.84103 8.46122 8.28806 8.12138C7.75721 7.79514 7.15576 7.31619 6.4137 6.72527L4.57477 5.26093C4.30836 5.04879 4.27237 4.67046 4.49437 4.41589Z" fill="#ACACAC" stroke="#989898" stroke-width="0.5" stroke-linecap="round"/>
</svg>
