<svg width="100" height="88" viewBox="0 0 100 88" fill="none" xmlns="http://www.w3.org/2000/svg">
<path id="Vector" d="M35.4239 57.4199L46.051 47.8499H60.2206C66.0797 47.8499 70.8477 43.5562 70.8477 38.2799V9.56999C70.8477 4.29373 66.0797 0 60.2206 0H10.6272C4.76805 0 0 4.29373 0 9.56999V38.2799C0 43.5562 4.76805 47.8499 10.6272 47.8499H24.7967L35.4239 57.4199ZM23.0255 15.95H47.8222C48.7999 15.95 49.5934 16.6645 49.5934 17.545C49.5934 18.4254 48.7999 19.14 47.8222 19.14H23.0255C22.0478 19.14 21.2543 18.4254 21.2543 17.545C21.2543 16.6645 22.0478 15.95 23.0255 15.95ZM23.0255 22.33H47.8222C48.7999 22.33 49.5934 23.0445 49.5934 23.925C49.5934 24.8054 48.7999 25.52 47.8222 25.52H23.0255C22.0478 25.52 21.2543 24.8054 21.2543 23.925C21.2543 23.0445 22.0478 22.33 23.0255 22.33ZM23.0255 31.9C22.0478 31.9 21.2543 31.1854 21.2543 30.305C21.2543 29.4245 22.0478 28.71 23.0255 28.71H47.8222C48.7999 28.71 49.5934 29.4245 49.5934 30.305C49.5934 31.1854 48.7999 31.9 47.8222 31.9H23.0255ZM88.5597 31.9H74.3901V38.2799C74.3901 45.3171 68.0351 51.0399 60.2206 51.0399H47.5176L37.9283 59.6752C37.2376 60.2973 36.3307 60.6099 35.4239 60.6099C34.517 60.6099 33.6102 60.2973 32.9194 59.6752L28.3391 55.5506V70.1799C28.3391 75.4657 33.0965 79.7499 38.9663 79.7499H53.1358L61.2585 87.0645C62.6436 88.3118 64.8859 88.3118 66.2674 87.0645L74.3901 79.7499H88.5597C94.4294 79.7499 99.1869 75.4657 99.1869 70.1799V41.4699C99.1869 36.1841 94.4294 31.9 88.5597 31.9ZM76.1613 63.7999H51.3646C50.3869 63.7999 49.5934 63.0853 49.5934 62.2049C49.5934 61.3245 50.3869 60.6099 51.3646 60.6099H76.1613C77.139 60.6099 77.9325 61.3245 77.9325 62.2049C77.9325 63.0853 77.139 63.7999 76.1613 63.7999ZM76.1613 57.4199H51.3646C50.3869 57.4199 49.5934 56.7054 49.5934 55.8249C49.5934 54.9445 50.3869 54.2299 51.3646 54.2299H76.1613C77.139 54.2299 77.9325 54.9445 77.9325 55.8249C77.9325 56.7054 77.139 57.4199 76.1613 57.4199Z" fill="#D9CB99"/>
</svg>
