<svg width="104" height="85" viewBox="0 0 104 85" fill="none" xmlns="http://www.w3.org/2000/svg">
<path id="Vector" d="M100.317 11.9949C95.9806 3.8968 83.4885 -2.72892 68.9574 1.12872C62.486 3.16649 56.7542 6.7827 52.3875 11.5826C48.9678 15.6556 46.2604 20.1852 44.3615 25.0108L65.5917 33.6684L47.5654 49.1579L55.0089 57.2265L49.9279 61.1725L38.2772 48.7456L53.6173 35.4647L36.0118 28.3678C37.5655 22.6537 40.076 17.1911 43.4553 12.1716C44.4924 10.5955 45.6382 9.08087 46.8858 7.63666H47.08C43.4912 4.6327 39.18 2.43427 34.4907 1.21707C20.0244 -2.67003 7.56464 3.8968 3.22798 11.9949C-2.85628 23.3323 -0.331961 36.0831 10.7362 49.8941C19.4095 60.7013 31.8046 71.6559 49.7985 84.3773C50.3671 84.7808 51.0676 85 51.7888 85C52.51 85 53.2105 84.7808 53.7792 84.3773C71.7407 71.6853 84.1681 60.8191 92.8414 49.8941C103.877 36.0831 106.402 23.3323 100.317 11.9949Z" fill="#D9CB99"/>
</svg>
