<svg width="17" height="16" viewBox="0 0 17 16" fill="none" xmlns="http://www.w3.org/2000/svg">
<g id="icn/messenger/members">
<path id="Combined Shape" fill-rule="evenodd" clip-rule="evenodd" d="M14.043 4.08395C13.0775 2.88617 11.5306 2.38872 10.0869 2.81959C9.73414 2.92489 9.53349 3.29627 9.63879 3.64908C9.74409 4.00189 10.1155 4.20253 10.4683 4.09723C11.388 3.82272 12.3759 4.1404 13.0049 4.9207C13.6457 5.7157 13.7926 6.84176 13.3772 7.79627C12.9675 8.73774 12.0894 9.33326 11.1312 9.33337C11.1157 9.33337 11.1002 9.33391 11.0849 9.33496C11.038 9.33387 10.9909 9.33334 10.9437 9.33337C10.5756 9.33367 10.2773 9.63238 10.2776 10.0006C10.2779 10.3688 10.5766 10.667 10.9448 10.6667C12.5699 10.6654 14.1017 11.5407 15.0489 13.0253C15.247 13.3357 15.6591 13.4268 15.9695 13.2287C16.2799 13.0307 16.371 12.6185 16.173 12.3081C15.4743 11.213 14.5112 10.3763 13.411 9.87323C13.9155 9.47855 14.3284 8.95191 14.5998 8.32834C15.2124 6.92074 14.9966 5.26703 14.043 4.08395ZM5.61094 2.66671C3.4018 2.66671 1.61094 4.45757 1.61094 6.66671C1.61094 7.96689 2.23127 9.12218 3.19211 9.85277C2.07241 10.3533 1.09172 11.1978 0.382505 12.3077C0.184253 12.618 0.275052 13.0302 0.585309 13.2285C0.895567 13.4267 1.3078 13.3359 1.50605 13.0257C2.45375 11.5426 3.9845 10.6675 5.60898 10.6667H5.61094L5.61303 10.6667C7.23741 10.6674 8.76812 11.5424 9.71587 13.0253C9.91414 13.3356 10.3264 13.4263 10.6366 13.2281C10.9469 13.0298 11.0376 12.6175 10.8394 12.3073C10.1301 11.1976 9.14948 10.3532 8.02987 9.8527C8.99065 9.12211 9.61094 7.96684 9.61094 6.66671C9.61094 4.45757 7.82008 2.66671 5.61094 2.66671ZM5.61094 4.00004C7.0837 4.00004 8.27761 5.19395 8.27761 6.66671C8.27761 8.13946 7.0837 9.33337 5.61094 9.33337C4.13818 9.33337 2.94428 8.13946 2.94428 6.66671C2.94428 5.19395 4.13818 4.00004 5.61094 4.00004Z" fill="#878787"/>
</g>
</svg>
