<svg width="25" height="24" viewBox="0 0 25 24" fill="none" xmlns="http://www.w3.org/2000/svg">
<path fill-rule="evenodd" clip-rule="evenodd" d="M14.56 5C14.56 6.10457 13.6287 7 12.48 7C11.3312 7 10.4 6.10457 10.4 5C10.4 3.89543 11.3312 3 12.48 3C13.6287 3 14.56 3.89543 14.56 5ZM14.56 12C14.56 13.1046 13.6287 14 12.48 14C11.3312 14 10.4 13.1046 10.4 12C10.4 10.8954 11.3312 10 12.48 10C13.6287 10 14.56 10.8954 14.56 12ZM12.48 21C13.6287 21 14.56 20.1046 14.56 19C14.56 17.8954 13.6287 17 12.48 17C11.3312 17 10.4 17.8954 10.4 19C10.4 20.1046 11.3312 21 12.48 21Z" fill="#0A1629"/>
</svg>
