<svg width="29" height="29" viewBox="0 0 29 29" fill="none" xmlns="http://www.w3.org/2000/svg">
<g id="icn/general/notifications">
<path id="notifications" fill-rule="evenodd" clip-rule="evenodd" d="M15.9656 4.24314C19.8447 4.99389 22.4074 8.68755 21.7872 12.561L21.7453 12.7983L20.8901 17.2171C20.721 18.0907 21.253 18.9373 22.0932 19.1757L22.3654 19.2418C23.4338 19.57 23.1696 21.1603 22.118 21.1951L21.988 21.1917L21.8559 21.1732L4.18387 17.753L4.05445 17.7208C2.9433 17.3795 3.27356 15.6731 4.43183 15.771L4.70909 15.8112C5.5293 15.8984 6.29686 15.3796 6.52203 14.5858L6.55604 14.443L7.41125 10.0242C8.17742 6.06536 12.0073 3.47706 15.9656 4.24314ZM14.2444 21.3304C15.001 21.4769 15.3146 22.3881 14.8083 22.9691C14.1525 23.7219 13.1455 24.0685 12.1653 23.8788C11.1852 23.6891 10.3802 22.9918 10.0525 22.0487C9.81223 21.3571 10.3696 20.6651 11.0747 20.7232L11.1871 20.7387L14.2444 21.3304ZM9.42067 10.1905C10.0702 7.43731 12.7836 5.66443 15.5855 6.2067C18.4593 6.76288 20.338 9.54388 19.7817 12.4183L18.9265 16.8371L18.8942 17.031L18.8673 17.2884C18.8376 17.716 18.883 18.1354 18.9935 18.5318L19.0099 18.5849L7.78913 16.4132L7.82514 16.3703L7.96415 16.1763C8.23018 15.7786 8.42297 15.3223 8.5196 14.823L9.37481 10.4042L9.42067 10.1905Z" fill="#0A1629"/>
</g>
</svg>
