<svg width="23" height="23" viewBox="0 0 23 23" fill="none" xmlns="http://www.w3.org/2000/svg">
<g id="icn/general/search">
<path id="search" fill-rule="evenodd" clip-rule="evenodd" d="M11.0208 2.875C6.52201 2.875 2.875 6.52201 2.875 11.0208C2.875 15.5197 6.52201 19.1667 11.0208 19.1667C12.9227 19.1667 14.6723 18.5149 16.0585 17.4225L16.445 17.8002L19.4474 20.8026L19.5376 20.8824C19.9136 21.1747 20.4572 21.1481 20.8026 20.8026C21.1769 20.4284 21.1769 19.8216 20.8026 19.4474L17.7925 16.4372L17.4149 16.0682C18.5119 14.6805 19.1667 12.9271 19.1667 11.0208C19.1667 6.52201 15.5197 2.875 11.0208 2.875ZM11.0208 4.79167C14.4611 4.79167 17.25 7.58056 17.25 11.0208C17.25 14.4611 14.4611 17.25 11.0208 17.25C7.58056 17.25 4.79167 14.4611 4.79167 11.0208C4.79167 7.58056 7.58056 4.79167 11.0208 4.79167Z" fill="#F48035"/>
</g>
</svg>
