<svg width="99" height="98" viewBox="0 0 99 98" fill="none" xmlns="http://www.w3.org/2000/svg">
<path id="Vector" d="M75.5993 41.9276C88.9374 37.5144 98.4999 25.7885 98.4999 12.0486L98.4182 8.69152H77.3663V0H21.134V8.69152H0.0817046L0 12.0486C0 25.7881 9.56248 37.514 22.9006 41.9276C26.0423 49.1953 32.7043 54.4824 40.9092 56.8125V64.7031C40.5398 70.8846 34.8407 76.1445 28.0084 76.1445V83.2461H21.128V97.0547H77.3719V83.2461H70.4915V76.1445C63.6592 76.1445 57.9601 70.8846 57.5907 64.7031V56.8125C65.7956 54.4824 72.4576 49.1949 75.5993 41.9276ZM77.3719 15.3867H90.5148C90.489 15.5552 90.4705 15.788 90.4412 15.9552C89.1425 23.3945 84.1874 29.638 77.3659 33.3174C77.3831 32.9469 77.3719 15.3867 77.3719 15.3867ZM8.05868 15.9552C8.02944 15.788 8.01094 15.5552 7.98514 15.3867H21.128C21.128 15.3867 21.1168 32.9469 21.1336 33.3174C14.3125 29.638 9.35778 23.3945 8.05868 15.9552ZM49.25 32.2636L40.5398 37.5976L43.3775 28.349L35.1567 22.3975L45.621 22.016L49.2504 13.0034L52.8798 22.016L63.344 22.3975L55.1224 28.3494L57.9601 37.598L49.25 32.2636Z" fill="#D9CB99"/>
</svg>
